<?xml version="1.0" encoding="UTF-8"?>
<svg id="Layer_1" data-name="Layer 1" xmlns="http://www.w3.org/2000/svg" viewBox="0 0 800 800">
  <defs>
    <style>
      .cls-1 {
        fill: #020100;
      }

      .cls-2 {
        fill: #fff;
      }

      .cls-3 {
        fill: #231f20;
        stroke: #a97c50;
        stroke-miterlimit: 10;
        stroke-width: 4px;
      }
    </style>
  </defs>
  <g>
    <path d="M412.23,237.55l1.71,17.75c2.2,22.8,33.29,27.74,42.45,6.75l7.17-16.42-3.78,16.93c-5.01,22.46,23.15,36.87,38.43,19.67l11.65-13.11-8.1,13.68c-11.91,20.11,10.76,42.88,30.92,31.06l13.93-8.17-10.49,9.23c-17.93,15.77-3.07,45.06,20.25,39.91l13.84-3.06-12.14,5.25c-22.1,9.55-16.94,42.27,7.03,44.56l13.25,1.26-13.25,1.26c-23.97,2.29-29.13,35.01-7.03,44.56l12.14,5.25-13.84-3.06c-23.32-5.15-38.17,24.14-20.25,39.91l10.49,9.23-13.93-8.17c-20.16-11.83-42.84,10.95-30.92,31.06l8.1,13.68-11.65-13.11c-15.28-17.2-43.44-2.79-38.43,19.67l3.78,16.93-7.17-16.42c-9.16-20.99-40.25-16.05-42.45,6.75l-1.71,17.75-1.71-17.75c-2.2-22.8-33.29-27.74-42.45-6.75l-7.17,16.42,3.78-16.93c5.01-22.46-23.15-36.87-38.43-19.67l-11.65,13.11,8.1-13.68c11.91-20.11-10.76-42.88-30.92-31.06l-13.93,8.17,10.49-9.23c17.93-15.77,3.07-45.06-20.25-39.91l-13.84,3.06,12.14-5.25c22.1-9.55,16.94-42.27-7.03-44.56l-13.25-1.26,13.25-1.26c23.97-2.29,29.13-35.01,7.03-44.56l-12.14-5.25,13.84,3.06c23.32,5.15,38.17-24.14,20.25-39.91l-10.49-9.23,13.93,8.17c20.16,11.83,42.84-10.95,30.92-31.06l-8.1-13.68,11.65,13.11c15.28,17.2,43.44,2.79,38.43-19.67l-3.78-16.93,7.17,16.42c9.16,20.99,40.25,16.05,42.45-6.75l1.71-17.75Z"/>
    <path d="M294.99,285.96l13.76,11.34c17.68,14.57,43.16-3.92,34.79-25.24l-6.54-16.68,9.3,14.64c12.34,19.42,42.44,9.7,41.08-13.27l-1.03-17.51,3.94,15.4c5.8,22.64,37.93,22.71,43.83.1l4.07-15.63-.89,13.94c-1.52,23.83,29.69,34.03,42.54,13.9l7.62-11.94-4.87,12.3c-8.87,22.39,17.91,41.87,36.48,26.54l10.26-8.47-8.47,10.26c-15.33,18.57,4.16,45.35,26.54,36.48l12.3-4.87-11.94,7.62c-20.13,12.84-9.93,44.06,13.9,42.54l13.94-.89-15.63,4.07c-22.62,5.89-22.55,38.03.1,43.83l15.4,3.94-17.51-1.03c-22.97-1.36-32.69,28.74-13.27,41.08l14.64,9.3-16.68-6.54c-21.32-8.36-39.81,17.12-25.24,34.79l11.34,13.76-13.76-11.34c-17.68-14.57-43.16,3.92-34.79,25.24l6.54,16.68-9.3-14.64c-12.34-19.42-42.44-9.7-41.08,13.27l1.03,17.51-3.94-15.4c-5.8-22.64-37.93-22.71-43.83-.1l-4.07,15.63.89-13.94c1.52-23.83-29.69-34.03-42.54-13.9l-7.62,11.94,4.87-12.3c8.87-22.39-17.91-41.87-36.48-26.54l-10.26,8.47,8.47-10.26c15.33-18.57-4.16-45.35-26.54-36.48l-12.3,4.87,11.94-7.62c20.13-12.84,9.93-44.06-13.9-42.54l-13.94.89,15.63-4.07c22.62-5.89,22.55-38.03-.1-43.83l-15.4-3.94,17.51,1.03c22.97,1.36,32.69-28.74,13.27-41.08l-14.64-9.3,16.68,6.54c21.32,8.36,39.81-17.12,25.24-34.79l-11.34-13.76Z"/>
  </g>
  <g>
    <path d="M350.31,249.22l8.24,15.82c10.58,20.31,41.26,13.25,41.89-9.64l.5-17.91,2.84,17.11c3.77,22.7,35.27,25.51,43,3.84l5.89-16.52-2.39,15.72c-3.51,23.11,26.04,35.73,40.31,17.21l9.85-12.79-6.27,12.48c-10.71,21.34,14.03,42.93,33.72,29.42l11.68-8.02-9.29,9.42c-16.92,17.14.13,45.54,23.21,38.69l12.76-3.79-11.81,6.13c-21.37,11.1-13.9,43.37,10.18,43.95l13.23.32-13.97,2.35c-23.55,3.96-26.35,36.68-3.82,44.59l13.18,4.63-15.97-2.36c-23.12-3.41-35.62,26.2-17.04,40.38l12.64,9.65-15.72-7.79c-20.61-10.22-41.32,13.69-28.26,32.63l9.84,14.28-12.8-12.54c-16.36-16.03-43.33.2-36.83,22.16l5.06,17.1-8.24-15.82c-10.58-20.31-41.26-13.25-41.89,9.64l-.5,17.91-2.84-17.11c-3.77-22.7-35.27-25.51-43-3.84l-5.89,16.52,2.39-15.72c3.51-23.11-26.04-35.73-40.31-17.21l-9.85,12.79,6.27-12.48c10.71-21.34-14.03-42.93-33.72-29.42l-11.68,8.02,9.29-9.42c16.92-17.14-.13-45.54-23.21-38.69l-12.76,3.79,11.81-6.13c21.37-11.1,13.9-43.37-10.18-43.95l-13.23-.32,13.97-2.35c23.55-3.96,26.35-36.68,3.82-44.59l-13.18-4.63,15.97,2.36c23.12,3.41,35.62-26.2,17.04-40.38l-12.64-9.65,15.72,7.79c20.61,10.22,41.32-13.69,28.26-32.63l-9.84-14.28,12.8,12.54c16.36,16.03,43.33-.2,36.83-22.16l-5.06-17.1Z"/>
    <path d="M259.74,338.02l17.01,5.36c21.84,6.88,38.54-19.8,22.8-36.44l-12.31-13.01,14.1,10.09c18.71,13.39,42.98-6.9,33.12-27.69l-7.52-15.85,9.42,12.8c13.86,18.82,43.68,6.85,40.67-16.33l-2.08-16.01,4.4,13.26c7.51,22.67,40.28,20.43,44.65-3.04l2.59-13.93.09,13.23c.16,24.08,32.29,32.12,43.77,10.94l6.34-11.7-4.01,12.69c-7.26,22.96,20.84,40.49,38.27,23.88l9.58-9.13-8.22,11.54c-13.85,19.45,7.3,44.57,28.82,34.23l12.59-6.05-12.96,9.63c-18.76,13.94-6.66,43.71,16.51,40.6l15.76-2.11-16.63,5.6c-21.81,7.35-19.54,38.9,3.09,43.06l17.06,3.14-17.91.18c-22.9.23-30.5,30.78-10.37,41.72l15.67,8.51-17.01-5.36c-21.84-6.88-38.54,19.8-22.8,36.44l12.31,13.01-14.1-10.09c-18.71-13.39-42.98,6.9-33.12,27.69l7.52,15.85-9.42-12.8c-13.86-18.82-43.68-6.85-40.67,16.33l2.08,16.01-4.4-13.26c-7.51-22.67-40.28-20.43-44.65,3.04l-2.59,13.93-.09-13.23c-.16-24.08-32.29-32.12-43.77-10.94l-6.34,11.7,4.01-12.69c7.26-22.96-20.84-40.49-38.27-23.88l-9.58,9.13,8.22-11.54c13.85-19.45-7.3-44.57-28.82-34.23l-12.59,6.05,12.96-9.63c18.76-13.94,6.66-43.71-16.51-40.6l-15.76,2.11,16.63-5.6c21.81-7.35,19.54-38.9-3.09-43.06l-17.06-3.14,17.91-.18c22.9-.23,30.5-30.78,10.37-41.72l-15.67-8.51Z"/>
  </g>
  <ellipse class="cls-1" cx="296.66" cy="422.25" rx="15.11" ry="88.66" transform="translate(-217.34 468.04) rotate(-60)"/>
  <ellipse class="cls-1" cx="211.62" cy="467.41" rx="90.47" ry="6.4" transform="translate(-275.35 629.01) rotate(-84)"/>
  <ellipse class="cls-1" cx="179.86" cy="570.07" rx="27.62" ry="10.14" transform="translate(-281.46 189.93) rotate(-33)"/>
  <ellipse class="cls-1" cx="253.83" cy="449.07" rx="15.11" ry="88.66" transform="translate(-261.99 444.35) rotate(-60)"/>
  <ellipse class="cls-1" cx="146.31" cy="488.7" rx="88.66" ry="7.55" transform="translate(-362.36 450.16) rotate(-69)"/>
  <ellipse class="cls-1" cx="102.87" cy="576.11" rx="20.95" ry="5.84" transform="translate(-297.18 148.97) rotate(-33)"/>
  <ellipse class="cls-1" cx="296.66" cy="488.7" rx="88.66" ry="7.55" transform="translate(-265.89 590.52) rotate(-69)"/>
  <ellipse class="cls-1" cx="257.83" cy="571.41" rx="10.48" ry="5.84" transform="translate(-269.62 232.61) rotate(-33)"/>
  <ellipse class="cls-1" cx="534.78" cy="423.44" rx="88.66" ry="15.11" transform="translate(-140.07 324.12) rotate(-30)"/>
  <ellipse class="cls-1" cx="620.56" cy="467.41" rx="7.85" ry="89.36" transform="translate(-45.46 67.43) rotate(-6)"/>
  <ellipse class="cls-1" cx="651.46" cy="568.12" rx="6.7" ry="30.17" transform="translate(-179.82 805.06) rotate(-57)"/>
  <ellipse class="cls-1" cx="568.37" cy="442.46" rx="88.66" ry="15.11" transform="translate(-151.79 456.29) rotate(-39)"/>
  <ellipse class="cls-1" cx="646.88" cy="467.82" rx="5.79" ry="81.84" transform="translate(-58.81 94.58) rotate(-8)"/>
  <ellipse class="cls-1" cx="675.84" cy="560.28" rx="5.84" ry="20.95" transform="translate(-162.13 821.94) rotate(-57)"/>
  <ellipse class="cls-1" cx="534.78" cy="489.89" rx="7.55" ry="88.66" transform="translate(-140.04 224.18) rotate(-21)"/>
  <ellipse class="cls-1" cx="573.61" cy="572.6" rx="5.84" ry="10.48" transform="translate(-219.02 741.81) rotate(-57)"/>
  <circle class="cls-2" cx="363.3" cy="367.73" r="48.93"/>
  <circle class="cls-3" cx="388.71" cy="367.73" r="17.82"/>
  <circle class="cls-2" cx="468.14" cy="367.73" r="48.93"/>
  <circle class="cls-3" cx="441.73" cy="367.73" r="17.82"/>
</svg>